<svg width="1024" height="321" viewBox="0 0 1024 321" fill="none" xmlns="http://www.w3.org/2000/svg">
<path d="M96.4597 68.4907C43.1915 68.4907 0 110.815 0 163.028C0 215.241 43.1915 257.576 96.4597 257.576C149.728 257.576 192.919 215.241 192.919 163.028C192.919 110.815 149.723 68.4907 96.4597 68.4907ZM96.4597 227.915C60.8679 227.915 32.0057 198.863 32.0057 163.028C32.0057 127.184 60.8679 98.1319 96.4597 98.1319C132.057 98.1319 160.909 127.184 160.909 163.028C160.909 198.868 132.057 227.915 96.4597 227.915Z" fill="#DBC8B6"/>
<path d="M369.892 92.9555C352.786 77.8001 330.18 68.4903 305.311 68.4903C252.033 68.4903 208.852 110.815 208.852 163.028C208.852 215.241 252.033 257.576 305.311 257.576C358.569 257.576 401.74 215.271 401.766 163.063V5.31592H369.892V92.9555ZM305.306 227.914C269.704 227.914 240.847 198.862 240.847 163.028C240.847 127.184 269.704 98.1315 305.306 98.1315C340.893 98.1315 369.75 127.184 369.75 163.028C369.75 198.867 340.893 227.914 305.306 227.914Z" fill="#DBC8B6"/>
<path d="M578.733 92.9555C561.621 77.8001 539.016 68.4903 514.147 68.4903C460.873 68.4903 417.687 110.815 417.687 163.028C417.687 215.241 460.873 257.576 514.147 257.576C567.405 257.576 610.581 215.271 610.602 163.063V5.31592H578.733V92.9555ZM514.147 227.914C478.55 227.914 449.688 198.862 449.688 163.028C449.688 127.184 478.55 98.1315 514.147 98.1315C549.739 98.1315 578.596 127.184 578.596 163.028C578.596 198.867 549.739 227.914 514.147 227.914Z" fill="#DBC8B6"/>
<path d="M764.668 5.16113H732.8V252.617H764.668L764.735 102.906H801.659V73.2094H764.735L764.668 5.16113Z" fill="#DBC8B6"/>
<path d="M1024 73.0576H991.994V92.3115H991.984V162.757H991.949C991.949 162.792 991.954 162.812 991.954 162.837C991.954 198.651 963.483 227.688 928.359 227.688C893.251 227.688 864.78 198.646 864.78 162.837C864.78 162.812 864.78 162.792 864.78 162.757H864.74V92.3115V73.0576H832.739V162.757H832.744C832.744 162.792 832.739 162.812 832.739 162.837C832.739 209.597 867.019 248.332 912.046 256.01V320.539H943.915V256.131C989.319 248.765 1024 209.864 1024 162.837C1024 162.812 1023.99 162.792 1023.99 162.757H1024V73.0576Z" fill="#DBC8B6"/>
<path d="M670.558 38.1096C681.118 38.1096 689.679 29.6359 689.679 19.183C689.679 8.7301 681.118 0.256348 670.558 0.256348C659.998 0.256348 651.437 8.7301 651.437 19.183C651.437 29.6359 659.998 38.1096 670.558 38.1096Z" fill="#DBC8B6"/>
<path d="M686.5 73.2085H654.626V252.616H686.5V73.2085Z" fill="#DBC8B6"/>
<mask id="mask0_286_360" style="mask-type:alpha" maskUnits="userSpaceOnUse" x="0" y="0" width="1025" height="321">
<path d="M96.4597 68.4907C43.1915 68.4907 0 110.815 0 163.028C0 215.241 43.1915 257.576 96.4597 257.576C149.728 257.576 192.919 215.241 192.919 163.028C192.919 110.815 149.723 68.4907 96.4597 68.4907ZM96.4597 227.915C60.8679 227.915 32.0057 198.863 32.0057 163.028C32.0057 127.184 60.8679 98.1319 96.4597 98.1319C132.057 98.1319 160.909 127.184 160.909 163.028C160.909 198.868 132.057 227.915 96.4597 227.915Z" fill="black"/>
<path d="M369.892 92.9555C352.786 77.8001 330.18 68.4903 305.311 68.4903C252.033 68.4903 208.852 110.815 208.852 163.028C208.852 215.241 252.033 257.576 305.311 257.576C358.569 257.576 401.74 215.271 401.766 163.063V5.31592H369.892V92.9555ZM305.306 227.914C269.704 227.914 240.847 198.862 240.847 163.028C240.847 127.184 269.704 98.1315 305.306 98.1315C340.893 98.1315 369.75 127.184 369.75 163.028C369.75 198.867 340.893 227.914 305.306 227.914Z" fill="black"/>
<path d="M578.733 92.9555C561.621 77.8001 539.016 68.4903 514.147 68.4903C460.873 68.4903 417.687 110.815 417.687 163.028C417.687 215.241 460.873 257.576 514.147 257.576C567.405 257.576 610.581 215.271 610.602 163.063V5.31592H578.733V92.9555ZM514.147 227.914C478.55 227.914 449.688 198.862 449.688 163.028C449.688 127.184 478.55 98.1315 514.147 98.1315C549.739 98.1315 578.596 127.184 578.596 163.028C578.596 198.867 549.739 227.914 514.147 227.914Z" fill="black"/>
<path d="M764.668 5.16113H732.8V252.617H764.668L764.735 102.906H801.659V73.2094H764.735L764.668 5.16113Z" fill="black"/>
<path d="M1024 73.0576H991.994V92.3115H991.984V162.757H991.949C991.949 162.792 991.954 162.812 991.954 162.837C991.954 198.651 963.483 227.688 928.359 227.688C893.251 227.688 864.78 198.646 864.78 162.837C864.78 162.812 864.78 162.792 864.78 162.757H864.74V92.3115V73.0576H832.739V162.757H832.744C832.744 162.792 832.739 162.812 832.739 162.837C832.739 209.597 867.019 248.332 912.046 256.01V320.539H943.915V256.131C989.319 248.765 1024 209.864 1024 162.837C1024 162.812 1023.99 162.792 1023.99 162.757H1024V73.0576Z" fill="black"/>
<path d="M670.558 38.1096C681.118 38.1096 689.679 29.6359 689.679 19.183C689.679 8.7301 681.118 0.256348 670.558 0.256348C659.998 0.256348 651.437 8.7301 651.437 19.183C651.437 29.6359 659.998 38.1096 670.558 38.1096Z" fill="black"/>
<path d="M686.5 73.2085H654.626V252.616H686.5V73.2085Z" fill="black"/>
</mask>
<g mask="url(#mask0_286_360)">
<rect x="-65.6209" y="0.256348" width="1164.86" height="160.141" fill="white"/>
</g>
</svg>
