<svg width="76" height="24" viewBox="0 0 76 24" fill="none" xmlns="http://www.w3.org/2000/svg">
<path d="M7.17811 5.11328C3.22706 5.11328 0.0234375 8.28484 0.0234375 12.1974C0.0234375 16.11 3.22706 19.2823 7.17811 19.2823C11.1292 19.2823 14.3328 16.11 14.3328 12.1974C14.3328 8.28484 11.1288 5.11328 7.17811 5.11328ZM7.17811 17.0596C4.53817 17.0596 2.39739 14.8826 2.39739 12.1974C2.39739 9.51143 4.53817 7.33443 7.17811 7.33443C9.81843 7.33443 11.9585 9.51143 11.9585 12.1974C11.9585 14.883 9.81843 17.0596 7.17811 17.0596Z" fill="white"/>
<path d="M27.4595 6.94613C26.1906 5.81047 24.5139 5.11284 22.6693 5.11284C18.7175 5.11284 15.5146 8.2844 15.5146 12.197C15.5146 16.1095 18.7175 19.2818 22.6693 19.2818C26.6196 19.2818 29.8217 16.1118 29.8236 12.1996V0.378906H27.4595V6.94613ZM22.6689 17.0592C20.0282 17.0592 17.8878 14.8822 17.8878 12.197C17.8878 9.51099 20.0282 7.33399 22.6689 7.33399C25.3085 7.33399 27.4489 9.51099 27.4489 12.197C27.4489 14.8826 25.3085 17.0592 22.6689 17.0592Z" fill="white"/>
<path d="M42.9496 6.94613C41.6804 5.81047 40.0037 5.11284 38.1591 5.11284C34.2076 5.11284 31.0044 8.2844 31.0044 12.197C31.0044 16.1095 34.2076 19.2818 38.1591 19.2818C42.1094 19.2818 45.3119 16.1118 45.3134 12.1996V0.378906H42.9496V6.94613ZM38.1591 17.0592C35.5187 17.0592 33.378 14.8822 33.378 12.197C33.378 9.51099 35.5187 7.33399 38.1591 7.33399C40.799 7.33399 42.9394 9.51099 42.9394 12.197C42.9394 14.8826 40.799 17.0592 38.1591 17.0592Z" fill="white"/>
<path d="M56.7407 0.367676H54.377V18.9107H56.7407L56.7456 7.69213H59.4844V5.46684H56.7456L56.7407 0.367676Z" fill="white"/>
<path d="M75.9764 5.45508H73.6024V6.89786H73.6017V12.1766H73.599C73.599 12.1793 73.5994 12.1808 73.5994 12.1827C73.5994 14.8664 71.4877 17.0422 68.8825 17.0422C66.2784 17.0422 64.1666 14.866 64.1666 12.1827C64.1666 12.1808 64.1666 12.1793 64.1666 12.1766H64.1636V6.89786V5.45508H61.79V12.1766H61.7904C61.7904 12.1793 61.79 12.1808 61.79 12.1827C61.79 15.6866 64.3326 18.5891 67.6725 19.1645V24H70.0362V19.1736C73.404 18.6216 75.9764 15.7066 75.9764 12.1827C75.9764 12.1808 75.9756 12.1793 75.9756 12.1766H75.9764V5.45508Z" fill="white"/>
<path d="M49.7605 2.83652C50.5438 2.83652 51.1788 2.20154 51.1788 1.41826C51.1788 0.634976 50.5438 0 49.7605 0C48.9773 0 48.3423 0.634976 48.3423 1.41826C48.3423 2.20154 48.9773 2.83652 49.7605 2.83652Z" fill="white"/>
<path d="M50.9428 5.4668H48.5786V18.9106H50.9428V5.4668Z" fill="white"/>
</svg>
