<svg width="17" height="18" viewBox="0 0 17 18" fill="currentColor" xmlns="http://www.w3.org/2000/svg"><path fill-rule="evenodd" clip-rule="evenodd" d="M16.5 9.00098C16.5 13.5573 12.8063 17.251 8.25 17.251C3.69365 17.251 0 13.5573 0 9.00098C0 4.44463 3.69365 0.750977 8.25 0.750977C12.8063 0.750977 16.5 4.44463 16.5 9.00098ZM12.6237 6.49267C12.7663 6.83708 12.6028 7.23194 12.2584 7.37458L9.76178 8.40855C9.7167 8.7171 9.6384 9.02445 9.57045 9.2916L9.57008 9.29295L9.55275 9.36098C9.45592 9.74235 9.3792 10.0622 9.35558 10.3414L11.0038 13.1603C11.1919 13.4821 11.0836 13.8955 10.7618 14.0837C10.44 14.2718 10.0266 14.1635 9.83842 13.8417L8.28578 11.1863H8.16435L6.66647 13.8334C6.48288 14.1578 6.07103 14.272 5.74658 14.0885C5.42213 13.9049 5.30795 13.493 5.49154 13.1685L7.08862 10.3462C7.06418 10.0544 6.97898 9.74588 6.86963 9.37545L6.84855 9.30428C6.7698 9.03908 6.67737 8.72745 6.62659 8.4027L4.23285 7.37081C3.89051 7.22323 3.73263 6.82607 3.88021 6.48374C4.02779 6.1414 4.42494 5.98352 4.76728 6.13109L7.4025 7.26713H8.98973L11.7418 6.12732C12.0862 5.98467 12.4811 6.14825 12.6237 6.49267ZM8.30355 6.64383C8.8953 6.64383 9.375 6.16414 9.375 5.5724C9.375 4.98067 8.8953 4.50098 8.30355 4.50098C7.71187 4.50098 7.23218 4.98067 7.23218 5.5724C7.23218 6.16414 7.71187 6.64383 8.30355 6.64383Z" fill="currentColor"/></svg>