<svg width="20" height="17" viewBox="0 0 20 17" fill="currentColor" xmlns="http://www.w3.org/2000/svg">
  <path fill-rule="evenodd" clip-rule="evenodd" d="M0.549064 2.93444C0.553638 2.92587 0.558979 2.91606 0.565114 2.90507C0.58038 2.87773 0.600589 2.84306 0.626165 2.80214C0.677288 2.72034 0.750066 2.61324 0.847916 2.48964C1.04372 2.24231 1.34043 1.92831 1.76457 1.61985C2.62372 0.995013 3.95662 0.428711 5.9241 0.428711C7.8897 0.428711 9.13314 0.995641 9.89746 1.67504C9.93288 1.70653 9.96708 1.73808 10.0001 1.76965C10.0331 1.73808 10.0673 1.70653 10.1027 1.67504C10.867 0.995641 12.1105 0.428711 14.0761 0.428711C16.0436 0.428711 17.3765 0.995013 18.2356 1.61985C18.6597 1.92831 18.9565 2.24231 19.1523 2.48964C19.2501 2.61324 19.3229 2.72034 19.374 2.80214C19.3996 2.84306 19.4198 2.87773 19.4351 2.90507C19.441 2.91576 19.4462 2.92533 19.4507 2.93372C19.5214 3.0622 19.5616 3.2098 19.5616 3.36678V15.5948C19.5616 16.0918 19.1586 16.4948 18.6616 16.4948C18.3123 16.4948 18.0096 16.2959 17.8604 16.0052L17.8575 16.0003L17.8476 15.9841C17.8291 15.9544 17.7944 15.9023 17.741 15.8348C17.6343 15.7 17.4533 15.5045 17.1769 15.3035C16.6349 14.9093 15.6751 14.4566 14.0761 14.4566C12.4752 14.4566 11.6806 14.9087 11.2986 15.2483C11.0998 15.425 10.987 15.5936 10.9268 15.7049C10.8965 15.7608 10.8794 15.8024 10.8716 15.8231L10.8686 15.8314C10.8497 15.9009 10.8227 15.9671 10.7886 16.0289C10.7485 16.102 10.6988 16.1681 10.6416 16.2261C10.5515 16.3178 10.4407 16.3912 10.3143 16.4381C10.2152 16.4751 10.109 16.4949 10.0002 16.4949C9.95571 16.4949 9.91164 16.4916 9.86832 16.4852C9.7497 16.4678 9.6386 16.4272 9.53975 16.3683C9.4727 16.3284 9.4119 16.2804 9.35836 16.2259C9.27336 16.1396 9.20491 16.0353 9.1597 15.917C9.14905 15.8893 9.13976 15.861 9.13187 15.8323L9.12854 15.8231C9.12079 15.8024 9.10371 15.7608 9.0734 15.7049C9.01315 15.5936 8.90035 15.425 8.70161 15.2483C8.31956 14.9087 7.525 14.4566 5.9241 14.4566C4.3251 14.4566 3.36525 14.9093 2.82328 15.3035C2.54686 15.5045 2.36591 15.7 2.2592 15.8348C2.20579 15.9023 2.1711 15.9544 2.15256 15.9841C2.14676 15.9934 2.14257 16.0004 2.1399 16.005C2.11964 16.0445 2.09655 16.0823 2.0709 16.1181C2.01018 16.2033 1.93633 16.2754 1.85361 16.3329C1.66478 16.4644 1.42968 16.5203 1.1987 16.4839C0.80245 16.4221 0.491834 16.1017 0.444789 15.7008C0.439822 15.6592 0.437729 15.6173 0.438613 15.5751V3.38481C0.436977 3.30681 0.4455 3.22797 0.464834 3.15024C0.48366 3.07401 0.5122 3.00162 0.549064 2.93444ZM9.10008 3.52918C9.09264 3.51363 9.0838 3.49612 9.0734 3.47693C9.01315 3.36569 8.90035 3.19704 8.70161 3.02038C8.31956 2.68078 7.525 2.22871 5.9241 2.22871C4.3251 2.22871 3.36525 2.68141 2.82328 3.07557C2.54686 3.2766 2.36591 3.47211 2.2592 3.6069C2.252 3.616 2.24514 3.62481 2.23861 3.63333V13.5401C3.08963 13.0486 4.28726 12.6566 5.9241 12.6566C7.31622 12.6566 8.3461 12.941 9.10008 13.3483V3.52918ZM17.741 3.6069L17.7616 3.63335V13.5401C16.9106 13.0486 15.7129 12.6566 14.0761 12.6566C12.6839 12.6566 11.6541 12.941 10.9001 13.3483V3.52922C10.9075 3.51366 10.9164 3.49614 10.9268 3.47693C10.987 3.36569 11.0998 3.19704 11.2986 3.02038C11.6806 2.68078 12.4752 2.22871 14.0761 2.22871C15.6751 2.22871 16.6349 2.68141 17.1769 3.07557C17.4533 3.2766 17.6343 3.47211 17.741 3.6069Z" fill="currentColor"/>
</svg>
