<svg width="17" height="16" viewBox="0 0 17 16" fill="currentColor" xmlns="http://www.w3.org/2000/svg">
<path d="M8.55741 3.8978C6.16113 3.8978 4.22828 5.72933 4.22828 8C4.22828 10.2707 6.16113 12.1022 8.55741 12.1022C10.9537 12.1022 12.8865 10.2707 12.8865 8C12.8865 5.72933 10.9537 3.8978 8.55741 3.8978ZM8.55741 10.667C7.00887 10.667 5.74291 9.47094 5.74291 8C5.74291 6.52906 7.0051 5.33304 8.55741 5.33304C10.1097 5.33304 11.3719 6.52906 11.3719 8C11.3719 9.47094 10.106 10.667 8.55741 10.667ZM14.0734 3.73C14.0734 4.26197 13.6213 4.68682 13.0636 4.68682C12.5022 4.68682 12.0539 4.2584 12.0539 3.73C12.0539 3.20161 12.506 2.77318 13.0636 2.77318C13.6213 2.77318 14.0734 3.20161 14.0734 3.73ZM16.9406 4.7011C16.8766 3.41939 16.5676 2.28406 15.5767 1.34866C14.5896 0.413254 13.3914 0.120495 12.0388 0.0562312C10.6447 -0.0187437 6.46632 -0.0187437 5.07225 0.0562312C3.7234 0.116925 2.52526 0.409684 1.53435 1.34509C0.543432 2.28049 0.238245 3.41582 0.170426 4.69753C0.0913034 6.01852 0.0913034 9.97791 0.170426 11.2989C0.234477 12.5806 0.543432 13.7159 1.53435 14.6513C2.52526 15.5867 3.71964 15.8795 5.07225 15.9438C6.46632 16.0187 10.6447 16.0187 12.0388 15.9438C13.3914 15.8831 14.5896 15.5903 15.5767 14.6513C16.5639 13.7159 16.8728 12.5806 16.9406 11.2989C17.0198 9.97791 17.0198 6.02209 16.9406 4.7011ZM15.1397 12.7163C14.8458 13.416 14.2768 13.9551 13.5346 14.2372C12.4231 14.6549 9.78569 14.5585 8.55741 14.5585C7.32913 14.5585 4.68794 14.6513 3.58023 14.2372C2.84175 13.9587 2.27282 13.4196 1.97517 12.7163C1.53435 11.6631 1.63608 9.1639 1.63608 8C1.63608 6.8361 1.53812 4.33337 1.97517 3.28372C2.26906 2.58396 2.83798 2.04485 3.58023 1.7628C4.69171 1.34509 7.32913 1.44148 8.55741 1.44148C9.78569 1.44148 12.4269 1.34866 13.5346 1.7628C14.2731 2.04128 14.842 2.58039 15.1397 3.28372C15.5805 4.33694 15.4787 6.8361 15.4787 8C15.4787 9.1639 15.5805 11.6666 15.1397 12.7163Z" fill="currentColor"/>
</svg>
