<svg width="13" height="21" viewBox="0 0 13 21" fill="#fff" xmlns="http://www.w3.org/2000/svg">
<path d="M12.5558 4.62318V0.83632C12.5558 0.273821 12.0937 -0.0977937 11.5513 0.0227206L6.21763 1.17785C5.53457 1.32853 5.16291 1.69012 5.16291 2.29282L5.22321 13.4625C5.22321 13.9245 5.01227 14.2258 4.60046 14.3062L3.00334 14.6477C0.954214 15.0696 0 16.1243 0 17.6611C0 19.2281 1.21539 20.333 2.91291 20.333C4.39954 20.333 6.64954 19.218 6.64954 16.2649V7.07405C6.64954 6.57181 6.7299 6.48142 7.18191 6.39103L11.9631 5.33632C12.3248 5.25601 12.5558 4.97473 12.5558 4.62318Z" />
</svg>
