<svg viewBox="69.169 72.267 120.12 120.12" xmlns="http://www.w3.org/2000/svg" fill="currentColor">
  <path d="M 139.649 150.627 L 118.799 150.627 L 107.909 132.327 L 129.219 96.497 L 150.539 132.327 L 139.649 150.627 Z M 131.949 91.907 L 129.269 87.387 L 129.239 87.337 L 129.219 87.307 L 126.509 91.867 L 126.499 91.897 L 126.509 91.907 L 102.479 132.307 L 102.459 132.327 L 116.119 155.287 L 116.129 155.317 L 137.749 155.317 L 137.769 155.307 L 137.789 155.317 L 137.809 155.317 L 142.319 155.317 L 153.269 136.917 L 153.269 136.927 L 155.989 132.357 L 156.009 132.327 L 131.949 91.907 Z"/>
  <g transform="matrix(1, 0, 0, 1, -437.70159912109375, -325.093505859375)">
    <path d="M566.93,466.54L566.93,466.54l-0.01,4.69h0.01c7.62,0,13.82-6.19,13.82-13.81h-4.69 C576.05,462.44,571.96,466.54,566.93,466.54"/>
  </g>
  <path d="M 75.859 132.327 L 129.229 78.957 L 182.599 132.327 L 129.229 185.697 L 75.859 132.327 Z M 129.229 72.267 L 69.209 132.297 L 69.169 132.327 L 129.229 192.387 L 189.289 132.327 L 129.229 72.267 Z"/>
</svg>