<?xml version="1.0" encoding="utf-8"?>
<svg viewBox="0 0 1024 1024" xmlns="http://www.w3.org/2000/svg">
  <path d="M 1024.026 941.73 L 828.419 746.123 C 889.358 667.974 925.513 569.618 925.513 462.894 C 925.513 207.768 718.695 0.954 463.571 0.954 C 208.443 0.954 1.628 207.768 1.628 462.894 C 1.628 718.021 208.443 924.837 463.571 924.837 C 570.294 924.837 668.648 888.683 746.799 827.744 L 942.406 1023.351 L 1024.026 941.73 Z M 463.571 829.43 C 272.542 829.43 97.192 654.082 97.192 463.053 C 97.192 272.024 272.542 96.517 463.571 96.517 C 654.599 96.517 829.947 271.866 829.947 462.894 C 829.947 653.923 654.599 829.43 463.571 829.43 Z" style=""/>
</svg>