<svg width="19" height="17" viewBox="0 0 19 17" fill="currentColor" xmlns="http://www.w3.org/2000/svg">
<path d="M18.9814 4.6317C18.899 6.42695 17.6473 8.88513 15.2179 12.0062C12.7103 15.2673 10.5898 16.8979 8.85219 16.8979C7.77751 16.8979 6.86753 15.9056 6.12225 13.9209C4.67287 8.60102 4.05524 5.48403 2.85703 5.48403C2.71704 5.48403 2.23528 5.77638 1.40765 6.35283L0.542969 5.23286C2.66763 3.36761 4.69758 1.29236 5.9699 1.17707C7.40693 1.03707 8.28808 2.02117 8.6216 4.12112C9.80334 11.5945 10.3263 12.7227 12.4756 9.33806C13.2456 8.11926 13.6615 7.19281 13.7191 6.55459C13.9168 4.66464 12.2451 4.79228 11.1127 5.27815C12.0186 2.3094 13.7521 0.868253 16.3091 0.950604C18.1949 1.00001 19.0884 2.23116 18.9814 4.6317Z" fill="currentColor"/>
</svg>
